# This file uses centimeters as units for non-parametric coordinates.

mtllib 3D_Card.mtl
g default
v -0.810240 0.000000 3.629186
v -0.991189 0.000000 3.636738
v -1.094328 0.000000 3.480605
v -1.008545 0.000000 3.316587
v -0.823609 0.000000 3.308869
v -0.724457 0.000000 3.465168
v -0.909393 0.000000 3.472887
v -0.785184 0.000000 3.369440
v -0.763183 0.000000 3.857803
v -0.991189 0.000000 3.966726
v -0.991189 0.000000 5.161291
v 0.259107 0.000000 3.369440
v 0.259107 0.000000 5.161291
vt 0.501321 1.646835
vt 0.397645 1.810688
vt 0.311758 1.639147
vt 0.203907 1.802831
vt 0.293971 1.974542
vt 0.487710 1.982400
vt 0.591385 1.818547
vt 0.527888 1.918901
vt 1.621835 1.917617
vt 0.311352 1.293468
vt 0.309882 0.042100
vt 0.550334 1.407290
vt 1.619631 0.040561
vn 0.000000 1.000000 0.000000
vn 0.000000 1.000000 0.000000
vn 0.000000 1.000000 -0.000001
vn 0.000000 1.000000 -0.000001
vn 0.000000 1.000000 0.000000
vn 0.000000 1.000000 0.000000
vn 0.000000 1.000000 0.000000
vn 0.000000 1.000000 0.000000
vn 0.000000 1.000000 0.000001
vn 0.000000 1.000000 0.000001
vn 0.000000 1.000000 0.000000
vn 0.000000 1.000000 0.000001
vn 0.000000 1.000000 0.000001
vn 0.000000 1.000000 0.000000
vn 0.000000 1.000000 0.000000
vn -0.000001 1.000000 0.000000
vn 0.000000 1.000000 0.000000
vn 0.000000 1.000000 0.000000
vn 0.000000 1.000000 0.000000
vn 0.000000 1.000000 0.000000
vn 0.000000 1.000000 0.000000
vn 0.000000 1.000000 0.000000
vn 0.000000 1.000000 0.000000
vn 0.000000 1.000000 0.000000
vn 0.000000 1.000000 0.000000
vn 0.000000 1.000000 0.000000
vn 0.000000 1.000000 0.000000
vn 0.000000 1.000000 0.000000
vn 0.000000 1.000000 0.000000
vn 0.000000 1.000000 0.000000
vn 0.000000 1.000000 0.000000
vn 0.000000 1.000000 0.000000
vn 0.000000 1.000000 0.000000
vn 0.000000 1.000000 0.000000
vn 0.000000 1.000000 0.000000
vn 0.000000 1.000000 0.000000
vn 0.000000 1.000000 0.000000
s off
g Card
usemtl texturedFacets1
f 1/1/1 7/2/2 2/3/3
f 2/3/4 7/2/5 3/4/6
f 3/4/7 7/2/8 4/5/9
f 4/5/10 7/2/11 5/6/12
f 5/6/13 7/2/14 6/7/15 8/8/16
f 6/7/17 7/2/18 1/1/19
f 12/9/20 8/8/21 6/7/22
f 10/10/23 11/11/24 9/12/25 1/1/26
f 12/9/27 9/12/28 11/11/29 13/13/30
f 2/3/31 10/10/32 1/1/33
f 9/12/34 12/9/35 6/7/36 1/1/37
